<svg xmlns="http://www.w3.org/2000/svg" viewBox="0 0 388.59 320.91"><defs><style>.cls-1,.cls-2{fill-rule:evenodd;}.cls-2{fill:#fff;}.cls-3{font-size:51.75px;font-family:Sail-Regular, Sail;}.cls-3,.cls-4{fill:#292425;}.cls-4{font-size:92.69px;font-family:TwCenMT-Regular, Tw Cen MT;}</style></defs><title>jon beck logo</title><g id="Layer_1" data-name="Layer 1"><path class="cls-1" d="M304.36,319.58c6.29-5.71,12.56-11.44,18.9-17.1a5.08,5.08,0,0,1,2.64-1.16c4.78-.55,9.58-.92,14.35-1.48a4.53,4.53,0,0,0,2.32-1.25q32-29.8,63.89-59.65c.73-.69,1.53-1.38,2.39-2.24l-79.46-74.77,1,9.21c-2.18-3.68-4-6.74-5.8-9.82-2.32-4-4.66-8.05-6.84-12.16a12.51,12.51,0,0,1-.7-3.54h.55c4.47,2.22,8.94,4.41,13.39,6.66,2.8,1.41,5.56,2.91,8.34,4.37l-.21,1-6.7.48a19,19,0,0,0,1.54,1.88q38,35.28,76,70.55a27.83,27.83,0,0,1,2.48,2.59c26.54-24.86,53.33-49.62,80.67-75.23-1.74.08-5.28-.22-7.35-.13a32.64,32.64,0,0,1,4.9-2.85c4.25-2.45,8.61-4.73,12.95-7a16.07,16.07,0,0,1,4.51-1.67c-3.51,8.42-8.42,16-13.25,23.81l.94-8.16-79.44,74.71c1.24,1,1.94,1.8,2.86,2.66,21.07,19.74,42,39.58,63.26,59.16,1.83,1.69,5.17,1.94,7.89,2.39s5.81.27,8.7.61a6.07,6.07,0,0,1,3.12,1.46c5.81,5.15,11.54,10.41,17.32,15.6a11.78,11.78,0,0,0,1.77,1.11v.55c-3.74-.29-7.55-.25-11.21-.95-3.52-.67-6.89-2.1-10.44-3.23-.61,2.45-1,4.58.31,7.6,2.09,4.77,2.49,10.29,3.6,15.49l-.92.47c-1.22-1-2.5-2-3.66-3-5.32-4.9-10.63-9.81-15.86-14.8a4,4,0,0,1-1-2.6c0-4.43.17-8.86.07-13.29,0-.81-.93-1.73-1.63-2.38q-27.13-25.34-54.3-50.62c-4-3.69-7.94-7.35-11.81-11.12-.71-.69-1.66-1.54-1.66-1.54a20.75,20.75,0,0,0-1.92,1.5q-20.59,19.45-41.34,38.73c-4.77,4.43-9.74,8.65-14.58,13-3.71,3.34-7.47,6.65-11,10.18-.64.64-.65,2.36-.65,3.77,0,.06.05.17,0,.26-.11,4.19-.19,8.38-.35,12.56a2.3,2.3,0,0,1-.7,1.42q-9.55,8.88-19.17,17.69c-.11.1-.34.07-.77.14a5.86,5.86,0,0,1-.19-1.71c.89-4.62,4.15-17.06,4.08-21.08-5.68,1.33-12.13,2.19-17.74,3.37a15.25,15.25,0,0,1-4,.18Z" transform="translate(-225.96 -138.43)"/><path class="cls-1" d="M411.39,313.89l2.94,6.72c-10.78,2.16-19.23-.49-20.3-12-.54-5.82,0-10.93,4.79-14.9,9.13-7.63,26.75-3.81,31.83,6.92.3.64.83,1.6.59,2-1.71,2.86.32,4.25,1.93,6a3.28,3.28,0,0,1-.05,3c-1,1.63-.86,2.66.47,4.06.8.84.85,2.39,1.24,3.62a17.85,17.85,0,0,1-3,.66c-2.1.11-4.21,0-6.32.06-1.55.06-2-.55-2-2.11,0-4.18-.09-4.16-4.31-4.11C416.81,313.92,414.48,313.89,411.39,313.89Zm18.67-7-2-3.16c-.77,1-2.15,2-2.15,3s1.36,2.06,2.12,3.08Z" transform="translate(-225.96 -138.43)"/><path class="cls-1" d="M413.84,315.44c3,.6,5.11,5,7.32-1l.34,1.4a20.88,20.88,0,0,1,1,4.31c.06,2.18,1.13,2.57,3,2.5,2.83-.1,5.66,0,8.59,0a26.65,26.65,0,0,1,.47,3.39c0,1.87-.74,3.18-2.88,3.17-2.93,0-5.87.08-8.8-.05a3,3,0,0,1-2.2-1.17C418.45,324.12,416.38,320.16,413.84,315.44Z" transform="translate(-225.96 -138.43)"/><path class="cls-2" d="M430.06,306.92l-2,3c-.76-1-2.12-2.06-2.12-3.08s1.38-2,2.15-3Z" transform="translate(-225.96 -138.43)"/><path class="cls-1" d="M419.12,174.38c-2.1-.5-4.7-.39-5.95-1.64-1-1-.41-3.65-.52-5.52-8.34-.76-16.38-1.51-24.41-2.2-1.82-.15-3.66-.07-5.68-.09.07-5.46.13-10.65.2-16.19,5.19.07,10.3.21,15.41.13,1,0,2-.95,3.09-1.33a6.13,6.13,0,0,1,2.07-.33,78.8,78.8,0,0,0,9.09-.3c-1.11-.52-2.49-.79-3.26-1.63s-1.2-2.38-1.76-3.6a12,12,0,0,1,2.88-1.19c5.75-.78,11.51-1.52,17.28-2.06.84-.08,1.82.88,2.67,1.46.29.2.33,1,.56,1,3.12.49,2.14,2.87,2.33,4.78.26,2.59-.3,4.3-3.24,3.72-.09,7.62-.19,15.06-.29,23.38,4.76-.58,9-1.3,13.28-1.56a117,117,0,0,1,12,.15c.5,0,1.47,1.32,1.34,1.57-.4.78-1.26,1.93-1.89,1.9-4.42-.24-8.81-.88-13.23-1.13-4.1-.23-8.21-.23-12.32-.16a62.11,62.11,0,0,0-6.18.7" transform="translate(-225.96 -138.43)"/><text class="cls-3" transform="translate(104.21 110.67)">J</text><text class="cls-3" transform="translate(234.79 110.67)">B</text></g><g id="Layer_2" data-name="Layer 2"><text class="cls-4" transform="translate(0 295.16)">JON BECK</text></g></svg>